PathFileType	4	(X/Y/Z)	C:/Users/beibeiliu/ov580/test_trc/User1\sequence.13_training_dense_left.trc
DataRate	CameraRate	NumFrames	NumMarkers	Units	OrigDataRate	OrigDataStartFrame	OrigNumFrames
120	120	22	19	mm	120	34	67
Frame#	Time	ThumbCMC			ThumbMCP			ThumbIP			ThumbTip			IndexMCP			IndexPIP			IndexTip			MiddleMCP			MiddlePIP			MiddleTip			RingMCP			RingPIP			RingTip			PinkyMCP			PinkyPIP			PinkyTip			BackHand1			BackHand2			BackHand3	
		X0	Y0	Z0	X1	Y1	Z1	X2	Y2	Z2	X3	Y3	Z3	X4	Y4	Z4	X5	Y5	Z5	X6	Y6	Z6	X7	Y7	Z7	X8	Y8	Z8	X9	Y9	Z9	X10	Y10	Z10	X11	Y11	Z11	X12	Y12	Z12	X13	Y13	Z13	X14	Y14	Z14	X15	Y15	Z15	X16	Y16	Z16	X17	Y17	Z17	X18	Y18	Z18	
33	0.275	-118.222	62.4328	138.42	-83.0575	50.1802	118.233	-79.3357	21.7349	97.8212	-90.8105	-3.33135	99.0375	-97.5827	44.8611	56.9957	-83.6499	37.7953	34.5971	-68.0151	28.1014	13.5671	-108.405	24.1838	43.7927	-95.7718	17.1949	22.9499	-80.6985	9.4503	0.235029	-120.984	4.45216	49.4894	-111.956	-2.92668	29.1511	-98.9509	-10.6927	5.33941	-131.842	-21.0589	68.0349	-122.754	-25.695	53.4696	-122.925	-32.0041	32.3533	-153.563	20.4954	93.5337	-172.397	26.2962	118.567	-149.113	50.9687	106.988	
34	0.283333	-147.993	77.5156	121.065	-109.273	84.968	102.529	-91.8104	60.5204	91.7526	-88.0048	30.736	98.6305	-119.167	56.7864	44.6952	-100.038	50.142	20.462	-86.2242	43.7471	4.96905	-113.609	29.0545	37.3105	-95.7286	23.9439	16.9924	-75.4264	20.0041	-5.85952	-111.883	5.74591	52.6642	-96.4217	3.93126	29.6446	-78.7814	-3.0002	10.9785	-108.369	-10.5027	81.4807	-92.9828	-15.9032	63.5155	-84.2902	-22.6202	43.5902	-150.629	14.5156	93.2188	-172.343	14.7996	121.709	-164.845	43.493	97.9212	
35	0.291667	-173.899	74.1264	110.176	-141.655	87.621	83.8517	-117.51	72.3254	77.4051	-100.685	50.0831	88.593	-145.275	49.3077	31.9027	-130.137	48.9416	6.07563	-114.87	44.0914	-9.68662	-124.757	22.1663	32.0039	-110.084	25.6503	8.60725	-91.7064	25.9065	-14.5301	-111.628	8.56204	49.9911	-96.0236	8.20351	26.3923	-80.1645	8.74677	9.82995	-97.9956	0.581201	76.2043	-83.6077	-0.383821	63.1098	-72.1313	-7.14987	49.2294	-149.304	5.91636	91.6182	-168.572	4.16737	121.826	-176.02	31.617	96.5628	
36	0.3	-190.748	64.6566	104.929	-164.831	78.9732	74.5501	-140.118	67.8185	63.4366	-113.624	47.7763	70.1631	-169.818	33.5601	26.9805	-162.353	31.2559	3.70538	-149.391	27.6233	-20.4341	-151.639	13.1418	26.3638	-141.688	15.3749	0.597634	-122.248	14.1356	-24.2617	-131.965	2.7896	42.3668	-120.095	3.49318	18.6274	-104.227	6.06306	-7.99823	-113.611	-0.588254	64.3478	-101.528	-1.11453	49.7356	-87.2438	-9.04774	31.4123	-159.221	-1.71887	92.8409	-174.515	-2.20818	120.52	-189.084	20.8071	95.584	
37	0.308333	-195.942	58.6147	101.119	-174.868	68.8335	66.7461	-155.193	55.5701	51.8854	-132.28	30.6542	53.8074	-198.009	22.6693	21.4833	-195.607	18.3403	-3.37138	-187.657	15.6148	-28.7125	-183.589	-0.234996	24.2094	-178.313	-2.11791	-6.12429	-165.109	-4.74926	-33.8011	-165.97	-14.0574	34.8295	-161.449	-14.2551	3.28672	-147.749	-17.7124	-21.7909	-146.591	-21.157	59.2068	-137.226	-25.9603	37.7957	-135.381	-29.367	14.3507	-184.149	-6.31982	90.4028	-189.114	-9.59869	121.383	-208.293	19.5566	93.5189	
38	0.316667	-185.712	57.0552	102.107	-162.419	64.1813	66.0069	-153.163	42.3746	44.6491	-145.447	13.2363	49.4343	-207.661	32.4473	25.6004	-208.139	28.7971	-4.7163	-201.026	17.009	-29.1556	-209.308	8.82464	22.404	-207.803	1.23542	-8.22833	-200.471	-6.90726	-39.9546	-201.888	-12.1652	31.3693	-203.441	-17.4821	3.1929	-197.133	-22.2291	-22.7177	-185.916	-29.3839	52.166	-187.153	-38.4403	31.999	-189.77	-42.3449	2.9213	-202.828	-7.17697	88.545	-209.036	-0.884823	118.486	-215.284	30.1613	95.3244	
39	0.325	-161.678	51.1472	107.111	-138.553	47.9839	75.9443	-140.567	25.7209	48.8336	-152.316	-5.74557	49.1933	-185.887	47.4515	21.3749	-184.917	45.6746	-0.603411	-181.283	36.4417	-30.1183	-206.749	26.5791	19.4936	-206.78	25.3074	-9.74077	-206.758	18.3022	-36.0066	-212.082	10.0173	32.0205	-218.486	7.41755	2.43538	-219.638	1.52965	-25.5909	-213.016	-14.9933	50.5081	-221.025	-17.4812	30.5979	-227.777	-16.6878	4.27838	-211.743	13.6495	86.0825	-215.067	13.3935	117.293	-198.544	46.5471	98.9403	
40	0.333333	-134.643	34.5765	114.288	-119.038	21.624	82.0809	-129.052	6.43397	55.6061	-153.543	-15.2851	49.7809	-154.392	47.6569	27.6607	-149.014	45.3273	3.82206	-150.484	37.1599	-21.8729	-183.639	43.3155	24.7804	-183.289	45.2618	-2.58783	-181.141	44.5916	-33.9108	-203.431	30.8394	34.9241	-206.782	37.777	8.12668	-207.655	37.9165	-22.2459	-215.101	10.5549	55.1684	-228.413	13.0236	36.9804	-236.382	25.1726	14.8617	-204.209	28.4685	85.2499	-205.821	31.0255	120.157	-175.857	48.9527	104.125	
41	0.341667	-122.764	12.306	123.734	-109.93	-5.95651	94.6582	-124.57	-16.2574	62.3202	-153.502	-24.1311	57.4905	-127.719	28.9834	38.4709	-123.912	25.2819	14.3677	-126.152	17.0515	-12.7381	-159.99	37.4471	29.0078	-156.652	38.4166	2.48046	-160.112	36.7527	-28.0607	-185.392	34.0768	39.6993	-182.001	40.6486	13.0391	-182.784	43.0578	-14.4838	-209.158	20.8256	58.3062	-215.936	28.2729	40.8127	-224.831	44.3109	21.7556	-185.151	33.004	91.8359	-186.535	35.4824	124.911	-151.728	39.087	112.187	
42	0.35	-117.979	-1.09972	132.717	-101.347	-21.2107	105.438	-120.64	-27.0751	77.6766	-144.184	-34.3815	69.25	-110.509	8.68757	49.5167	-107.651	-1.0773	22.094	-107.514	-11.8327	-4.51427	-141.494	18.8154	34.757	-139.573	15.1807	9.04714	-135.21	9.02528	-22.3615	-168.484	21.6107	44.6747	-168.412	24.3742	15.5418	-164.345	23.5089	-9.45424	-194.999	16.7095	63.4575	-198.566	24.0255	45.3133	-201.026	39.1289	27.5715	-170.725	28.603	100.93	-175.453	33.3892	132.178	-139.503	29.4957	119.926	
43	0.358333	-112.671	2.54436	149.294	-97.5919	-15.5101	122.222	-104.707	-26.6178	95.7816	-131.612	-38.302	79.4041	-106.618	1.76127	60.0239	-97.1354	-7.62209	40.4088	-97.658	-20.946	16.2445	-133.174	5.03483	49.6885	-122.841	-4.62203	21.5874	-121.82	-16.3906	-3.82148	-155.977	5.52014	50.6442	-153.947	2.62357	27.679	-152.513	-5.12181	0.0612907	-180.227	2.63122	68.7289	-184.654	4.844	52.0149	-184.857	15.26	33.2598	-163.997	22.2773	106.186	-176.307	30.9581	138.198	-134.826	29.2949	130.281	
44	0.366667	-118.56	28.8347	151.308	-88.4353	14.6583	127.149	-89.4064	-3.02022	97.2017	-107.35	-23.5901	88.7836	-102.318	19.2192	65.2528	-93.7324	8.93187	43.8511	-85.7879	-9.20788	20.4217	-122.979	7.12674	54.5094	-112.501	-5.85747	31.2198	-98.7619	-21.3398	5.97727	-144.626	-7.0004	53.506	-137.215	-13.8426	32.8113	-127.028	-28.4834	9.37172	-163.808	-16.6767	75.9739	-161.404	-22.5742	51.9677	-156.263	-18.3366	28.3677	-166.415	15.8605	106.898	-178.199	27.0862	134.427	-143.489	42.2464	122.74	
45	0.375	-132.014	56.6118	131.48	-99.0866	51.7494	109.921	-90.0739	30.428	93.6252	-88.4513	3.26592	88.2523	-111.415	36.6779	49.6937	-96.2485	28.6744	29.0221	-82.5781	15.1786	10.0841	-118.951	11.212	42.1004	-101.588	-0.957563	20.9039	-84.0616	-9.47997	2.1641	-129.198	-6.88552	50.9923	-115.822	-16.7843	31.518	-95.9774	-29.2598	10.2641	-137.363	-27.1181	70.4736	-129.056	-35.7236	55.7762	-121.593	-36.3808	34.0533	-165.94	4.402	97.8883	-184.181	17.0289	123.884	-161.61	43.7293	107.627	
46	0.383333	-156.699	69.2703	110.829	-123.602	78.8611	91.3374	-104.514	58.3887	78.6199	-94.5456	29.6365	84.1543	-130.426	44.6342	35.8767	-116.269	39.3875	16.6505	-98.0702	28.921	-3.47329	-123.678	18.335	32.4125	-103.011	13.6776	10.3557	-82.5914	7.68495	-6.29584	-119.536	-6.938	49.1965	-102.368	-6.72075	27.5173	-81.0211	-13.7377	12.486	-114.491	-20.0705	70.7841	-104.202	-22.4816	60.4148	-89.4639	-27.0284	41.0455	-159.106	3.20383	90.8414	-179.187	5.36291	120.307	-174.371	38.0851	95.5455	
47	0.391667	-178.229	68.0898	104.227	-152.237	79.8938	80.28	-125.504	68.4497	62.7455	-104.952	47.1342	72.0268	-154.451	39.7644	24.9152	-144.523	39.1948	6.18409	-130.197	32.9604	-18.0187	-140.52	15.6939	29.3866	-121.93	13.3913	4.51594	-102.872	15.423	-19.2006	-121.713	-0.630798	41.603	-108.201	1.09262	22.1674	-87.6606	-0.433176	3.74315	-113.518	-8.27537	69.8379	-96.3679	-10.749	56.9116	-82.2006	-13.1696	36.2033	-160.09	0.711103	94.1524	-178.447	1.43025	118.093	-187.373	28.5168	93.2259	
48	0.4	-192.337	60.7644	105.35	-172.511	74.1376	74.0112	-149.714	63.4668	51.1735	-129.84	40.0512	61.1323	-185.941	27.1232	24.851	-178.937	21.3146	0.349325	-168.635	15.7231	-24.1747	-168.392	2.93947	25.7294	-158.923	3.24089	-5.45566	-142.356	3.58263	-32.8883	-151.086	-7.07442	37.583	-135.75	-13.031	11.1567	-122.464	-7.23678	-13.5062	-129.053	-17.7806	59.9759	-117.132	-18.862	42.2914	-109.172	-22.1299	24.1391	-173.843	-7.95063	93.6852	-184.217	-4.64287	120.4	-199.251	17.9364	98.5089	
49	0.408333	-191.965	60.4425	100.092	-174.997	66.361	70.2319	-160.708	50.8315	46.7043	-143.503	22.7649	47.7701	-207.32	22.1923	24.1084	-206.208	15.922	-2.37971	-199.799	8.47564	-25.8032	-201.242	-3.75934	23.9317	-196.353	-9.90227	-5.28656	-183.477	-17.7126	-36.7271	-187.236	-21.8987	34.2914	-182.826	-26.89	4.64777	-171.885	-31.4246	-18.828	-168.734	-30.6423	58.548	-161.796	-38.2813	35.3725	-154.92	-47.4436	9.96687	-196.594	-12.2543	89.9677	-199.881	-3.60444	122.078	-211.145	21.3572	98.5319	
50	0.416667	-171.707	57.1871	106.149	-154.445	61.1382	70.778	-147.636	44.2288	47.5625	-141.11	13.5332	37.8741	-200.97	37.3487	26.9954	-206.006	26.0998	-1.93513	-203.829	20.7244	-25.4387	-212.168	9.09097	23.7456	-214.883	3.00223	-6.32168	-211.718	-7.16995	-34.3313	-211.518	-10.6557	35.6024	-216.165	-19.5229	4.165	-211.904	-24.8675	-23.4193	-200.994	-32.8911	53.115	-205.06	-42.1656	34.5842	-207.185	-43.511	8.51406	-209.956	-2.82066	89.9824	-212.216	0.914828	119.899	-207.92	32.1078	97.8248	
51	0.425	-148.575	46.8004	110.592	-123.673	49.6748	81.3118	-122.066	34.379	55.3612	-124.308	7.81228	35.9654	-178.637	43.3462	25.2278	-181.284	40.2642	-1.79234	-184.087	32.9113	-29.0055	-202.491	27.144	23.6798	-206.378	27.6042	-3.5751	-212.862	16.6717	-39.1667	-213.083	10.1809	33.2176	-222.079	8.70242	4.36032	-226.739	0.303757	-19.2518	-218.246	-17.8438	56.0119	-228.618	-20.7149	32.08	-234.056	-20.3467	8.42914	-208.33	12.868	85.8197	-211.594	13.0839	118.86	-189.787	42.9358	97.2367	
52	0.433333	-139.269	33.8422	112.771	-111.78	32.9842	95.309	-98.5296	26.6192	62.2979	-96.4862	7.33439	43.2961	-159.594	37.8675	28.9536	-159.941	36.3833	2.0303	-161.769	30.5427	-26.0155	-189.427	31.8532	21.1848	-189.269	34.0652	-3.07878	-192.321	30.2003	-35.9434	-207.096	15.6737	35.5069	-211.84	21.0427	6.12798	-218.966	17.6896	-20.4164	-219.637	-6.00414	54.7175	-231.593	-5.25404	33.5908	-246.062	-1.07664	12.0693	-200.314	19.0098	84.4573	-207.47	22.123	120.845	-174.218	41.8268	97.1959	
53	0.441667	-130.79	22.9253	119.391	-103.07	19.4495	98.628	-85.0963	14.9801	76.0428	-75.0648	2.72381	59.2461	-145.414	23.4102	31.3197	-142.809	19.5373	3.51901	-142.679	14.3217	-19.356	-171.974	21.7953	21.1229	-174.906	20.3571	-6.31985	-178.882	16.0603	-34.6209	-192.695	11.2392	31.868	-199.908	11.1927	6.98366	-202.466	11.4856	-17.1504	-211.624	-7.18782	53.8417	-222.245	-6.60548	34.0041	-234.721	0.273599	15.7953	-197.467	15.9935	88.3973	-200.205	21.6264	118.112	-163.855	34.443	97.9269	
54	0.45	-125.426	12.8725	116.98	-101.482	3.17987	104.626	-80.6712	-1.86104	83.6645	-66.9465	-12.0066	69.5884	-137.133	9.63723	31.8959	-133.378	3.73164	2.76052	-133.26	-3.4986	-17.2977	-168.01	8.39862	23.5625	-164.261	4.97501	-6.25063	-166.229	0.504597	-34.9004	-189.595	-0.26695	33.3154	-193.533	-0.425421	3.66189	-191.979	-2.4928	-19.2419	-208.392	-14.0876	50.835	-216.329	-14.2176	33.1781	-224.427	-9.33619	11.3037	-191.68	10.8096	85.7486	-196.85	15.5376	118.846	-157.784	24.5862	100.099	
